<svg width="860" height="262" viewBox="0 0 860 262" fill="none" xmlns="http://www.w3.org/2000/svg" role="img" aria-label="Languages across repositories: JavaScript 52.6%, TypeScript 15.1%, Python 12.8%, Jupyter Notebook 7.2%, Java 6.1%, CSS 3.0%, Other 3.2%">
  <rect width="860" height="262" rx="12" fill="#07090d"/>
  <rect x="0.5" y="0.5" width="859" height="261" rx="11.5" stroke="#1f2733"/>

  <g font-family="ui-monospace,'JetBrains Mono',Consolas,monospace">
    <text x="24" y="34" font-size="13" fill="#8b98a9"><tspan fill="#22d3ee">$</tspan> gh langs --aggregate</text>
    <text x="836" y="34" text-anchor="end" font-size="11.5" fill="#8b98a9">12 public repos · Jul 2026</text>

    <!-- baseline -->
    <line x1="150" y1="54" x2="150" y2="242" stroke="#1f2733"/>

    <!-- rows: name | bar | value -->
    <g font-size="12.5" fill="#e6edf3">
      <text x="138" y="73" text-anchor="end">JavaScript</text>
      <text x="138" y="101" text-anchor="end">TypeScript</text>
      <text x="138" y="129" text-anchor="end">Python</text>
      <text x="138" y="157" text-anchor="end">Jupyter</text>
      <text x="138" y="185" text-anchor="end">Java</text>
      <text x="138" y="213" text-anchor="end">CSS</text>
      <text x="138" y="241" text-anchor="end">Other</text>
    </g>

    <g fill="#8b5cf6">
      <path d="M150,64 h556 q4,0 4,4 v2 q0,4 -4,4 h-556 z"/>
      <path d="M150,92 h157 q4,0 4,4 v2 q0,4 -4,4 h-157 z"/>
      <path d="M150,120 h132 q4,0 4,4 v2 q0,4 -4,4 h-132 z"/>
      <path d="M150,148 h73 q4,0 4,4 v2 q0,4 -4,4 h-73 z"/>
      <path d="M150,176 h61 q4,0 4,4 v2 q0,4 -4,4 h-61 z"/>
      <path d="M150,204 h28 q4,0 4,4 v2 q0,4 -4,4 h-28 z"/>
      <path d="M150,232 h30 q4,0 4,4 v2 q0,4 -4,4 h-30 z"/>
    </g>

    <g font-size="11.5" fill="#8b98a9">
      <text x="718" y="73">52.6%</text>
      <text x="319" y="101">15.1%</text>
      <text x="294" y="129">12.8%</text>
      <text x="235" y="157">7.2%</text>
      <text x="223" y="185">6.1%</text>
      <text x="190" y="213">3.0%</text>
      <text x="192" y="241">3.2%</text>
    </g>
  </g>
</svg>
